<svg xmlns="http://www.w3.org/2000/svg" viewBox="0 0 128 128" role="img" aria-labelledby="title desc">
  <title id="title">EverFree logo</title>
  <desc id="desc">A winged notebook with a quill, representing freedom and writing.</desc>
  <defs>
    <linearGradient id="bg" x1="18" y1="16" x2="110" y2="118" gradientUnits="userSpaceOnUse">
      <stop offset="0" stop-color="#142033"/>
      <stop offset="0.58" stop-color="#0f1117"/>
      <stop offset="1" stop-color="#132826"/>
    </linearGradient>
    <linearGradient id="teal" x1="26" y1="31" x2="102" y2="108" gradientUnits="userSpaceOnUse">
      <stop offset="0" stop-color="#9ff5e9"/>
      <stop offset="0.5" stop-color="#4fd1c5"/>
      <stop offset="1" stop-color="#0f766e"/>
    </linearGradient>
    <linearGradient id="page" x1="20" y1="42" x2="101" y2="91" gradientUnits="userSpaceOnUse">
      <stop offset="0" stop-color="#f4fbff"/>
      <stop offset="1" stop-color="#b9d7df"/>
    </linearGradient>
    <linearGradient id="quill" x1="54" y1="20" x2="76" y2="103" gradientUnits="userSpaceOnUse">
      <stop offset="0" stop-color="#fff4bf"/>
      <stop offset="0.58" stop-color="#f6c85f"/>
      <stop offset="1" stop-color="#b9761b"/>
    </linearGradient>
    <filter id="shadow" x="-20%" y="-20%" width="140%" height="140%">
      <feDropShadow dx="0" dy="10" stdDeviation="8" flood-color="#020617" flood-opacity="0.38"/>
    </filter>
  </defs>

  <rect width="128" height="128" rx="30" fill="url(#bg)"/>
  <circle cx="64" cy="68" r="46" fill="#4fd1c5" opacity="0.09"/>
  <circle cx="64" cy="68" r="32" fill="#4fd1c5" opacity="0.08"/>

  <g filter="url(#shadow)">
    <path d="M62 67C48 49 32 40 15 40c6 18 19 31 39 39l8-12Z" fill="url(#page)"/>
    <path d="M57 73C41 68 27 68 15 75c13 13 29 18 48 13l-6-15Z" fill="#d8edf0"/>
    <path d="M66 67c14-18 30-27 47-27-6 18-19 31-39 39l-8-12Z" fill="url(#page)"/>
    <path d="M71 73c16-5 30-5 42 2-13 13-29 18-48 13l6-15Z" fill="#d8edf0"/>
    <path d="M25 50c12 7 23 14 34 24" fill="none" stroke="#5f8f97" stroke-width="3" stroke-linecap="round" opacity="0.45"/>
    <path d="M103 50C91 57 80 64 69 74" fill="none" stroke="#5f8f97" stroke-width="3" stroke-linecap="round" opacity="0.45"/>

    <path d="M64 70c-15 4-27 11-36 21 12 9 25 12 36 7V70Z" fill="#f4fbff"/>
    <path d="M64 70c15 4 27 11 36 21-12 9-25 12-36 7V70Z" fill="#d8edf0"/>
    <path d="M64 72v27" fill="none" stroke="#7aa9af" stroke-width="3" stroke-linecap="round"/>

    <path d="M75 20c-1 28-10 55-31 82" fill="none" stroke="url(#quill)" stroke-width="8" stroke-linecap="round"/>
    <path d="M77 20c14 17 14 34 0 51-12-17-12-34 0-51Z" fill="url(#teal)"/>
    <path d="M76 29c-1 15-5 28-13 39" fill="none" stroke="#e9fffb" stroke-width="3" stroke-linecap="round" opacity="0.72"/>
    <path d="M42 101l-5 16 15-7 8-14-10-6-8 11Z" fill="url(#quill)"/>
    <path d="M41 101l11 8" fill="none" stroke="#7c4a13" stroke-width="2" stroke-linecap="round" opacity="0.75"/>
  </g>
</svg>
